<svg xmlns="http://www.w3.org/2000/svg" xmlns:xlink="http://www.w3.org/1999/xlink" version="1.1" x="0px" y="0px" viewBox="0 0 512 640" xml:space="preserve">
<style>
 enable-background:new 0 0 512 512;
 path { fill: #000000; stroke: #000000; }
 @media ( prefers-color-scheme: dark ) {
  path { fill: #ffffff; stroke: #ffffff; }
 }
</style>
<g><g><g><g><path d="M485.033,445h-60c-0.539,0-1.055-0.218-1.431-0.603c-0.376-0.386-0.581-0.906-0.568-1.444      c0.03-1.314,0.05-2.632,0.05-3.953c0-68.844-43.116-131.815-107.288-156.696c-1.03-0.399-1.541-1.558-1.143-2.588      c0.4-1.03,1.563-1.539,2.588-1.142c31.992,12.404,59.317,33.896,79.022,62.153c20.163,28.912,30.82,62.895,30.82,98.272      c0,0.667-0.005,1.334-0.014,2h55.997c0.01-0.666,0.017-1.332,0.017-2c0-9.163-0.549-18.387-1.631-27.416      c-0.132-1.097,0.65-2.093,1.747-2.224c1.093-0.134,2.093,0.65,2.224,1.747c1.102,9.187,1.66,18.571,1.66,27.893      c0,1.182-0.021,2.358-0.042,3.536l-0.009,0.499C487.014,444.126,486.124,445,485.033,445z M85.135,445h-60      c-1.091,0-1.981-0.875-2-1.966l-0.011-0.595c-0.021-1.146-0.041-2.29-0.041-3.439c0-1.724,0.018-3.442,0.056-5.157      c0.024-1.09,0.915-1.957,1.999-1.957c0.015,0,0.03,0,0.044,0.001c1.104,0.023,1.98,0.938,1.956,2.043      c-0.037,1.686-0.055,3.375-0.055,5.069c0,0.668,0.007,1.335,0.017,2.001h55.997c-0.009-0.666-0.014-1.333-0.014-2      c0-94.842,77.159-172,172-172c11.106,0,22.218,1.065,33.026,3.167c1.084,0.211,1.792,1.261,1.581,2.346      c-0.21,1.083-1.256,1.795-2.345,1.581c-10.558-2.053-21.412-3.094-32.263-3.094c-92.636,0-168,75.364-168,168      c0,1.321,0.02,2.639,0.05,3.953c0.012,0.539-0.193,1.06-0.569,1.444C86.189,444.782,85.673,445,85.135,445z M27.729,406.029      c-0.1,0-0.202-0.008-0.304-0.023c-1.092-0.167-1.842-1.187-1.675-2.279c15.738-103.172,99.16-183.454,202.868-195.233      c1.095-0.128,2.087,0.664,2.213,1.762c0.125,1.097-0.664,2.088-1.762,2.213C127.151,224.043,45.169,302.939,29.703,404.33      C29.552,405.32,28.7,406.029,27.729,406.029z M477.936,383.887c-0.893,0-1.706-0.601-1.937-1.505      c-25.367-99.276-114.705-169.739-217.255-171.354c-1.104-0.018-1.986-0.927-1.969-2.031c0.019-1.104,0.928-1.944,2.031-1.969      c104.35,1.643,195.256,73.343,221.067,174.363c0.273,1.07-0.372,2.159-1.442,2.433      C478.266,383.866,478.099,383.887,477.936,383.887z"/></g><g><path d="M425.033,445h-60.029c-0.543,0-1.063-0.221-1.439-0.611c-0.377-0.392-0.579-0.918-0.56-1.461      c0.054-1.492,0.079-2.74,0.079-3.928c-0.001-6.857-0.647-13.718-1.922-20.389c-0.207-1.085,0.505-2.133,1.59-2.34      c1.093-0.21,2.133,0.505,2.34,1.59c1.321,6.917,1.991,14.029,1.992,21.138c0,0.644-0.007,1.301-0.021,2.001h56.008      c0.009-0.666,0.014-1.333,0.014-2c0-71.854-45.647-135.748-113.587-158.994c-1.045-0.357-1.603-1.494-1.245-2.539      s1.494-1.604,2.54-1.245C380.35,300.021,427.084,365.437,427.084,439c0,1.353-0.02,2.701-0.052,4.047      C427.007,444.133,426.119,445,425.033,445z M145.164,445h-1.172c-1.104,0-2-0.896-2-2c0-0.788,0.456-1.47,1.118-1.796      c-0.018-0.782-0.026-1.505-0.026-2.204c0-61.757,50.243-112,112-112c42.733,0,81.149,23.765,100.257,62.021      c0.494,0.988,0.093,2.189-0.896,2.683c-0.99,0.496-2.19,0.092-2.683-0.896C333.337,353.917,296.292,331,255.084,331      c-59.551,0-108,48.448-108,108c0,1.173,0.025,2.421,0.079,3.929c0.02,0.542-0.183,1.069-0.56,1.46      C146.227,444.779,145.707,445,145.164,445z M113.992,445H85.135c-1.086,0-1.974-0.868-2-1.954      c-0.031-1.346-0.051-2.693-0.051-4.046c0-94.842,77.159-172,172-172c8.804,0,17.645,0.672,26.277,1.995      c1.092,0.167,1.842,1.188,1.674,2.28c-0.167,1.092-1.195,1.837-2.279,1.674c-8.434-1.293-17.07-1.949-25.672-1.949      c-92.636,0-168,75.364-168,168c0,0.667,0.005,1.334,0.014,2h26.894c1.104,0,2,0.896,2,2S115.097,445,113.992,445z"/></g><g><path d="M54.345,175.762c-18.433,0-33.429-14.996-33.429-33.429s14.996-33.429,33.429-33.429c2.879,0,5.723,0.366,8.485,1.092      C63.314,86.204,82.819,67,106.726,67c17.08,0,32.738,10.034,39.889,25.564c0.462,1.003,0.023,2.191-0.98,2.653      c-1.004,0.464-2.191,0.022-2.653-0.98C136.481,80.121,122.25,71,106.726,71c-22.003,0-39.905,17.901-39.905,39.904      c0,0.579,0.02,1.153,0.044,1.727c0.028,0.664-0.275,1.299-0.811,1.694c-0.535,0.395-1.232,0.498-1.857,0.274      c-3.166-1.125-6.48-1.695-9.852-1.695c-16.227,0-29.429,13.202-29.429,29.429s13.202,29.429,29.429,29.429c1.104,0,2,0.896,2,2      S55.449,175.762,54.345,175.762z"/></g><g><path d="M199.084,176.238H50.513c-1.104,0-2-0.896-2-2s0.896-2,2-2h148.571c1.104,0,2,0.896,2,2      S200.188,176.238,199.084,176.238z"/></g><g><path d="M389.084,201c-12.131,0-22-9.869-22-22s9.869-22,22-22s22,9.869,22,22S401.215,201,389.084,201z M389.084,161      c-9.925,0-18,8.074-18,18c0,9.925,8.075,18,18,18s18-8.075,18-18C407.084,169.074,399.009,161,389.084,161z"/></g><g><path d="M469.084,121c-12.131,0-22-9.869-22-22s9.869-22,22-22s22,9.869,22,22S481.215,121,469.084,121z M469.084,81      c-9.925,0-18,8.074-18,18c0,9.925,8.075,18,18,18s18-8.075,18-18C487.084,89.074,479.009,81,469.084,81z"/></g><g><path d="M365.004,445H304.91c-0.558,0-1.09-0.233-1.469-0.643c-0.379-0.41-0.569-0.959-0.525-1.516      c0.113-1.426,0.168-2.683,0.168-3.842c0-26.468-21.532-48-48-48c-26.467,0-48,21.532-48,48c0,1.104-0.896,2-2,2s-2-0.896-2-2      c0-28.673,23.327-52,52-52s52,23.327,52,52c0,0.639-0.015,1.303-0.046,2h56.023c0.016-0.703,0.022-1.36,0.022-2      c0-24.638-8.514-48.735-23.974-67.855c-0.694-0.858-0.561-2.118,0.298-2.813c0.859-0.694,2.118-0.561,2.813,0.298      c16.032,19.829,24.862,44.82,24.862,70.37c0,1.237-0.025,2.531-0.081,4.071C366.964,444.147,366.08,445,365.004,445z       M200.208,445h-55.044c-1.077,0-1.96-0.853-1.999-1.929c-0.056-1.557-0.082-2.851-0.082-4.071c0-61.757,50.243-112,112-112      c23.467,0,45.934,7.179,64.973,20.762c0.899,0.642,1.108,1.891,0.467,2.79c-0.641,0.897-1.891,1.108-2.789,0.466      C299.377,337.922,277.713,331,255.084,331c-59.551,0-108,48.448-108,108c0,0.635,0.007,1.291,0.022,2h53.102      c1.104,0,2,0.896,2,2S201.313,445,200.208,445z"/></g><g><path d="M304.912,445c-0.053,0-0.105-0.002-0.159-0.007c-1.102-0.087-1.924-1.05-1.837-2.151      c0.113-1.426,0.168-2.683,0.168-3.842c0-26.468-21.532-48-48-48c-26.467,0-48,21.532-48,48c0,1.166,0.055,2.423,0.167,3.842      c0.087,1.101-0.734,2.064-1.835,2.151c-1.095,0.091-2.064-0.733-2.152-1.835c-0.121-1.525-0.18-2.886-0.18-4.158      c0-28.673,23.327-52,52-52s52,23.327,52,52c0,1.266-0.059,2.625-0.18,4.157C306.821,444.205,305.945,445,304.912,445z"/></g></g></g></g><text x="0" y="527" fill="#000000" font-size="5px" font-weight="bold" font-family="'Helvetica Neue', Helvetica, Arial-Unicode, Arial, Sans-serif">Created by Flatart</text><text x="0" y="532" fill="#000000" font-size="5px" font-weight="bold" font-family="'Helvetica Neue', Helvetica, Arial-Unicode, Arial, Sans-serif">from the Noun Project</text></svg>
